# ns3-ntn-toolkit model: gateway
# generated by generate_models.py
o gateway
v -0.2500 -0.2500 0.0000
v 0.2500 -0.2500 0.0000
v 0.2500 0.2500 0.0000
v -0.2500 0.2500 0.0000
v -0.2500 -0.2500 0.3000
v 0.2500 -0.2500 0.3000
v 0.2500 0.2500 0.3000
v -0.2500 0.2500 0.3000
v 0.0000 0.0000 0.5000
v 0.6000 0.0000 0.7500
v 0.5196 0.3000 0.7500
v 0.3000 0.5196 0.7500
v 0.0000 0.6000 0.7500
v -0.3000 0.5196 0.7500
v -0.5196 0.3000 0.7500
v -0.6000 0.0000 0.7500
v -0.5196 -0.3000 0.7500
v -0.3000 -0.5196 0.7500
v -0.0000 -0.6000 0.7500
v 0.3000 -0.5196 0.7500
v 0.5196 -0.3000 0.7500
f 1 2 3 4
f 5 6 7 8
f 1 2 6 5
f 2 3 7 6
f 3 4 8 7
f 4 1 5 8
f 9 10 11
f 9 11 12
f 9 12 13
f 9 13 14
f 9 14 15
f 9 15 16
f 9 16 17
f 9 17 18
f 9 18 19
f 9 19 20
f 9 20 21
f 9 21 10
