# ns3-ntn-toolkit model: ris
# generated by generate_models.py
o ris
v -0.9000 -0.0500 -0.9000
v 0.9000 -0.0500 -0.9000
v 0.9000 0.0500 -0.9000
v -0.9000 0.0500 -0.9000
v -0.9000 -0.0500 0.9000
v 0.9000 -0.0500 0.9000
v 0.9000 0.0500 0.9000
v -0.9000 0.0500 0.9000
v -0.0800 -0.2400 -1.1500
v 0.0800 -0.2400 -1.1500
v 0.0800 0.0000 -1.1500
v -0.0800 0.0000 -1.1500
v -0.0800 -0.2400 -0.6500
v 0.0800 -0.2400 -0.6500
v 0.0800 0.0000 -0.6500
v -0.0800 0.0000 -0.6500
f 1 2 3 4
f 5 6 7 8
f 1 2 6 5
f 2 3 7 6
f 3 4 8 7
f 4 1 5 8
f 9 10 11 12
f 13 14 15 16
f 9 10 14 13
f 10 11 15 14
f 11 12 16 15
f 12 9 13 16
